<?xml version="1.0" encoding="utf-8"?>
<svg height="68" viewBox="0 0 162 68" width="162" xmlns="http://www.w3.org/2000/svg" xmlns:xlink="http://www.w3.org/1999/xlink"><linearGradient id="a" x1="0%" x2="100%" y1="50%" y2="50%"><stop offset="0" stop-color="#c6b476"/><stop offset="1" stop-color="#a68b51"/></linearGradient><g fill="none" fill-rule="evenodd"><g fill="#d51a29"><path d="m158.450297 48.4202635-.571349 1.0307936c-.054362.0998413-.177221.1419366-.282141.0971429l-.483825-.2050794.265832 1.7053969c.008698.0534285-.027725.1030793-.081.1111746-.032617.0048571-.064691-.0064762-.08698-.0296826l-.756181-.7291111-.114161.3346032c-.04349.1246667-.174503.1964444-.303886.1678413l-.755638-.1732381.212014 1.0259365c.024463.1187301-.039141.2390793-.152759.285492l-.20114.0809524 1.484637 1.3060318c.10492.0955238.150584.2401587.119054.3777777l-.08698.3831746 1.40255-.1829523c.125034-.0183492.240826.068.259309.1915873.001631.0129523.002718.0264444.002175.0399365l-.033162 1.6190476h.326719l-.038598-1.6190476c-.000543-.1279048.103289-.2326032.232128-.2331429.010329 0 .01957.0005397.029355.0016191l1.402551.1829523-.08698-.3831746c-.030443-.1386984.017396-.2833333.12449-.3777777l1.478658-1.300635-.39141-.1619047.255504-1.246127-.983417.2423175-.190268-.5396826-.756181.7291111c-.036423.0388572-.097853.0415556-.138081.0048572-.023919-.022127-.035335-.0539683-.029899-.0863492l.266376-1.7053969-.484369.2050794c-.10492.0447937-.227235.0026984-.282141-.0971429l-.570806-1.0307936z"/><path d="m75.8844966.00010794-1.3916778 2.52571428c3.2236913 0 7.920604 3.00603175 1.8591946 8.14920638l-8.4696644 7.2155555c1.1274765.9498413 2.1581879 2.0070794 3.0769127 3.1571429l8.1543625-6.956508c9.5840939-8.25174598 16.5207382-11.5492063 23.9520808-11.5492063l1.168792-2.54190476z"/><path d="m36.9826973 14.1720635.8154363 4.0098413c6.8768456-6.0509207 16.727859-7.444381 25.0338926-3.5403175l-.9187249-4.452381c-.7828187-3.6860317-.1957047-7.66349201 7.9206041-7.66349201h.3098657l1.2394631-2.52571429h-43.2126845l-.5816779 2.52571429c4.5012081 0 7.8173154 3.7831746 9.3938255 11.64634921"/><path d="m27.6813423 58.1345492 8.5022819-7.264127c-1.0905101-1.1581587-2.0592484-2.4242539-2.8920806-3.7777778l-12.0738926 10.1735556c-5.3818792 4.5597778-11.0518792 7.954381-19.94557046 7.954381l-1.27208054 2.6984127h31.3997315l.7828188-2.8171429h-.5871141c-6.0614094.0215873-8.7034228-2.8867619-3.9140939-6.9673016"/><path d="m70.9918792 54.1570349-.7719463-3.7130159c-6.1184899 6.8690794-15.7841275 9.4352699-24.5391946 6.5139683l.1848322.8910159c1.0872483 5.2403174-2.0548994 7.3715238-9.0948322 7.3715238l-1.0872484 2.6984127h43.4899329l.7828188-2.6984127c-4.4631544 0-7.3987248-3.5883492-8.9643624-11.0634921"/></g><path d="m51.5192074 14.1613778v3.1085714l2.0222819-.0809524v-.6530158l-1.3373155.0323809v-.588254l1.1579195-.0377777v-.6044445l-1.1524832.0377778v-.588254l1.2775167-.0377778v-.647619zm2.5843892.873746c-.0010872.0037778-.0016308.0075556-.0021745.0113333-.0402281.4689842.2799665.8937143.7447651.9876191l.4131544.124127c.201141.0588254.315302.1888889.2989933.3453968-.0157651.1511111-.1984228.2919683-.4550134.2725397l.0255503.0026984c-.3185637.0026984-.5784161-.2504127-.5822215-.566127 0-.0091746 0-.0183492.0005437-.0275238l-.7121477.0809524c.0179396.6211746.5322081 1.1149841 1.1579195 1.111746.5642819.1176508 1.1176912-.2406984 1.2356577-.8008889.004349-.0151111.0065235-.0307619.0092416-.0464127.0369664-.4835555-.293557-.918-.7719463-1.0146031l-.4077181-.1192699c-.2065772-.0636825-.2875772-.1829524-.2718121-.3286667.0483825-.2023809.2527852-.3275873.4566443-.2806349.2500671-.0032381.4582752.1894286.472953.4371429l.6360403-.1079365c-.0456645-.5332064-.499047-.9412064-1.0383222-.9341905-.059255-.0097143-.11851-.0145714-.1766778-.0145714-.5023088 0-.9469933.3588889-1.0334296.8672698zm-5.9602953-.3826349.1087249.647619.9404698-.1619047.4131543 2.3907936.6849665-.1133333-.4126108-2.3907937.9453625-.1619047-.1141611-.6476191zm8.7795302.4479365.9241611.2374603-.608859 2.3530159.6740939.1673016.6034228-2.3530159.9295974.2374603.1630872-.6368254-2.5224161-.6422222zm-12.3837583.7393651 1.0872483 2.8819047 1.935302-.7177777-.2500671-.620635-1.2503356.4808572-.8752349-2.2672064zm15.5585234 2.7469841.6197316.2973651.4892617-.9935556.4294631.2050794c.017396.0086349.034792.0172698.0527316.0253651.5006778.2239682 1.0899664.0021587 1.3155704-.4948889.2256041-.4970476.0027182-1.0820635-.4985033-1.3060318l-1.0491947-.5073016zm1.7069799-1.0577778-.3587919-.1780952.3424832-.7069841.3642282.1780952c.013047.0053968.0250067.011873.03751.0178095.1918994.1057778.2609396.3459365.1543893.5359048-.0728456.1300635-.2082081.2029206-.3479195.2029206-.0646912 0-.1310134-.0156508-.1918993-.0496508zm-19.6623423-.442.5436242 3.2375556.6191879-.3561905-.1299262-.6373651 1.048651-.5877143.5055705.4317461.652349-.3669842-2.5392685-2.1150158zm.7436779.4581905.8540335.7447619-.652349.3669841zm19.4785973 2.2126984.5925503.3669841 1.6308725-2.6120635-.5925503-.3669841zm1.0981208.6638095 1.6091275 1.2574604.4022819-.5396826-1.0546309-.8149206 1.4949665-1.915873-.5436242-.4209524zm-23.5171812-1.8780952 1.2177181 1.4247619-2.1038255-.7069841-.6469127.5396825 1.9733557 2.38.5436241-.421492-1.2992617-1.5645397 2.2886577.7555555.5436242-.464127-1.9733557-2.38zm103.190195 7.9603175c0 3.6919682 2.588194 6.5085714 6.839335 7.3126984l3.435161.6368254c1.664034.3130158 2.691483 1.2304762 2.691483 2.4933333 0 1.5488889-1.342208 2.6066667-3.538449 2.6066667-3.436248 0-4.99645-2.0076191-5.208463-4.3174603l-5.137249 1.2310158c.3539 3.5127937 3.32698 7.9813651 10.274497 7.9813651 5.980409 0 9.279664-3.9720635 9.279664-7.8793651-.016308-3.5025397-2.473489-6.562-7.279127-7.4260317l-3.348725-.6476191c-1.734705-.3184127-2.478926-1.1980952-2.478926-2.3907936 0-1.3761905 1.348188-2.6984127 3.435705-2.6984127 3.049731 0 4.001073 1.9698413 4.180469 3.1301587l5.028524-1.4031746c-.543624-2.9196825-2.902953-6.6488889-9.17094-6.6488889-4.821946 0-9.002959 3.308254-9.002959 8.0196826zm-20.607705-7.4692064v24.9333333h5.598785v-8.9371428h3.859188c5.105175 0 8.611007-3.275873 8.611007-7.9873016v-.0269841c0-4.6412699-3.505832-7.9819048-8.611007-7.9819048zm5.631403 4.8463492h3.261745c2.120677 0 3.570523 1.1873016 3.577047 3.1868254-.006524 1.9239683-1.45637 3.1544445-3.577047 3.1544445h-3.261745zm-30.3505373-4.8463492v5.3104762h7.7248993v19.6228571h5.593893v-19.6228571h7.762953v-5.3104762zm-9.0350336 24.9333333h5.6705437v-24.9333333h-5.6705437zm-22.4951677-23.3196825h-.0271813c-.0190268.0172698-.03751.0350794-.0554496.0534286-.6094027.6173968-.5990738 1.6082539.0228322 2.2132381.0070671.0075555.0146779.0151111.021745.0226666.626255.6427619 1.6585973.6594921 2.3060537.0377778.6474563-.6217143.6643087-1.6465714.0380536-2.2893333-.319651-.328127-.7458523-.4932699-1.1720536-.4932699-.4082618 0-.8170672.1516508-1.134.4554921zm.3533557 1.7404762c-.3006242-.3793968-.2353893-.9287937.1467785-1.2277778.0097852-.0091746.0201141-.0183492.0304429-.0275238.3924967-.3373016.9861343-.2946667 1.326443.0955238.3397651.3896508.2968188.9789841-.0956779 1.3168254-.3924966.3373016-.9866778.2946667-1.3269865-.0949841h-.0266376c-.0190269-.0199683-.0369665-.0410159-.0543624-.0620635zm-29.9640202-.7949524c-.5805906.6837778-.4936107 1.7053968.1951611 2.2817778h-.0108725c.0320738.0296825.0657785.057746.1000269.0841905.6849664.5294285 1.6721879.4069206 2.2049396-.2730794l.0038053-.0043175c.5811343-.6843174.4936108-1.7048571-.1946174-2.2823174-.3060604-.2558095-.6795302-.3810159-1.0508255-.3810159-.4637114 0-.9247047.1953651-1.2476175.5747619zm.6518054 1.7420953-.0108725-.0053969c-.0206577-.0156508-.0413154-.0318412-.0608859-.0496508-.3609664-.3232698-.3897785-.8759047-.0641476-1.2347936.3098657-.3567302.8453355-.4123175 1.2231543-.1268254.3935839.2979047.4696913.8564762.1696108 1.2482857-.1761343.2299048-.4435974.350254-.7137786.350254-.1897248 0-.3805369-.0593651-.5430805-.181873zm32.0901342-.6368254.5436242.7879365-2.0331544 1.3815873.3914094.5666666 2.0168457-1.3653968.5430805.7879365.5436242-.3669841-1.4618054-2.1587302zm-34.5201342 1.4463492 2.609396 1.667619.3751006-.5828571-2.6039597-1.6676191zm19.9238255 5.8658095c-.1891812-.9946349-.9192685-2.2364445-1.8015705-2.244-.8774094.0075555-1.6238053 1.2493651-1.8026577 2.244l-1.8483221-5.4772381-.5001343.1457143 1.2992618 5.5425397h-11.002953v.3561904l9.6819463.6260318h-4.0771812v.3022222l5.1916107.5396825v.4803175c.0027181.2552698.2103825.4614286.4675168.464127h2.3267114l.1032886-.4155556h.3533557l.1032886.4155556h2.3104027c.2571342-.0026984.4647986-.2088572.4675167-.464127v-.4587302l5.1916108-.5396825v-.3027619h-4.387047l9.9918121-.6686667v-.3561904h-11.0138255l1.3155704-5.5317461-.5001342-.1462539zm-21.4785906-2.9839048.5925503.2914286.4294631-.8478413 2.1744967 1.0799048.3098657-.6152381-2.1744966-1.0793651.4240268-.8526984-.5871141-.2914286zm37.5437718-1.5645397c-.0038054.0016191-.0076107.0032381-.0119597.0048572h.0271812c-.422396.214254-.6159262.7080635-.4512081 1.1489841l.1195973.4106984c.0543625.2050794 0 .3664445-.135906.4317461-.135906.0647619-.3642282 0-.4838255-.248254-.170698-.2666032-.0918725-.6200953.1766779-.7895556.0086979-.0048571.0163087-.0097143.024463-.0140317l-.4185906-.5024445c-.5197047.3459365-.6686577 1.0388889-.3370469 1.5650794.2098389.5359048.8176107.8025079 1.3574295.5941905.0005436-.0005397.0010872-.0005397.0016309-.0005397.4370738-.2315238.6267986-.7533968.4403355-1.2088889l-.1087248-.4047619c-.0603423-.2104762 0-.34.135906-.4047619.1995101-.0647619.4147853.0410159.4838255.2374603.1326443.2099365.0782819.4867937-.1250335.6314286l.4294631.4749206c.4310939-.3216508.5403624-.9190793.2500671-1.3707936-.1690671-.3982857-.5577584-.6373651-.9671074-.6373651-.135906 0-.2739866.0264444-.4071745.0820317zm-37.9949799 2.8112064-.2500671.7555555 2.5822148 2.072381.2446309-.6967302-.5436242-.409619.3751007-1.1333333h.6740939l.2337584-.712381zm.6034229.6098413h1.1361745l-.2337584.6961904zm39.0186241.251492c-.0114161.0021588-.0239194.0048572-.0353355.0075556-.4539262.1252063-.7415034.5682857-.6692014 1.0307936h.0277248v.4263492c0 .2104762-.0652349.3615873-.2174496.3993651-.1527584.0372381-.3533557-.0809524-.4240269-.34-.1152483-.2979047.0337047-.6319682.3337853-.7463809.0081543-.0037778.0163087-.0064762.0250067-.008635l-.315302-.5726031c-.5767853.2417777-.8594698.8910158-.6414765 1.4733333.0875234.5655873.6202751.953619 1.1899932.8667302.0168524-.0026985.0331611-.0048572.0494698-.008635.4647987-.1419365.7523759-.6028254.674094-1.079365v-.4209524c0-.215873.0652349-.3346032.2120134-.372381.2098389-.0253651.4017383.1214286.4294631.3292064.0880671.2320635-.021745.4927301-.2500671.5936508l.3261745.5396825c.4887181-.2299048.7143221-.7954921.5164429-1.2952381-.0978523-.4970476-.5371006-.8419047-1.0285369-.8419047-.0668657 0-.1348188.0059365-.2027718.0194285zm-40.5135906 2.4523175 1.8646309.2698413-2.0331544.873746-.1250335.826254 3.0769127.4479365.1087249-.68-2.0168457-.2914286 2.1744967-.9660318.1087248-.7177777-3.060604-.4425397zm40.6195973.3227301c-.0217449.0016191-.0434899.0037778-.0652349.0064762h.0277249c-.8638188.0528889-1.5199732.790635-1.466698 1.6471111.0021745.032381.0048926.0642223.0092416.0960635.0222886.68.5251409 1.2493651 1.2014094 1.3594604l.1250335-.6740635c-.3761879-.0572064-.6572416-.3729207-.6686577-.7501588-.054906-.4803174.2924698-.9126031.7757517-.9665714.0190268-.0026984.0375101-.0037778.0559933-.0043175.486-.0804127.9448188.2460953 1.0247315.7285715.0038054.0194285.0059799.0388571.0081544.0588254.0646913.3648254-.1505839.7215555-.5055705.8365079l.2718121.6260318c.6360403-.2218096 1.0176644-.8678096.9024161-1.5273016-.0657785-.8197778-.7561812-1.4420318-1.5705302-1.4420318-.0413154 0-.0831745.0016191-.1255772.0053968zm-15.7379194 4.2861588 11.9597315.771746c.089698-.6130794.1440604-1.2315556.1630873-1.8511111h-.0163088c.0005437-.7220952-.0483825-1.4431111-.1467785-2.1587302-3.7792752 1.7253651-7.8205772 2.8198413-11.9597315 3.2380953zm-19.8640269-1.0793651c-.0005436.6244127.0375101 1.2472063.1141611 1.8673016l11.9597315-.7717461c-4.1386107-.4182539-8.1799127-1.5121904-11.9597315-3.2380952-.0864362.7107619-.1244899 1.4269206-.1141611 2.1425397zm-3.4955033-.0976825c-.1293826-.3686032-.4870873-.6098413-.8806712-.5931112-.0244631.0005397-.0494698.0010794-.0744765.0037778-.5169866.0447937-.9002416.496508-.8551208 1.0108254v1.2196826l3.104094-.0437143-.0380537-.6686667h-1.1524832v-.248254l1.1470469-.5666666v-.7555556zm-1.2231544.5396825c0-.2800952.1467785-.4312064.3691208-.4366032.2234295-.0053968.3865168.1451746.3865168.4263492v.4047619l-.7556376.0107937zm38.9397987.5995873 1.2340268.0971429-.0978523 1.225619-1.2340269-.0976825-.0543624.6853968 3.0932215.248254.0543624-.6907937-1.2122819-.0971429.0978524-1.2250793 1.2122818.0971428.0597987-.6853968-3.0932215-.2423174zm-9.899396 3.5079365c2.3044228-.5234921 4.5539396-1.2601587 6.7191946-2.2019048h-.0434899l-13.590604-.8742857zm-23.3867114-2.2019048c2.1511208.9395873 4.3859597 1.6773334 6.6757047 2.2019048l6.9148993-3.0761905zm18.728396 2.968254c1.2883892-.1246667 2.5691677-.3173333 3.8374429-.5774603l-6.6207987-2.9412698zm-11.1720202-.5774603c1.2682752.260127 2.5490537.4527936 3.8379866.5774603l2.7833557-3.5187301zm7.7901342.7555555c.9241611 0 1.842886-.0431746 2.7616108-.1181904l-2.7616108-3.4922857zm-3.3161073-.1349206c.9187248.091746 1.8374496.1295238 2.7724832.1349206v-3.6104761zm-15.7705369-3.286127.2011409 1.2569207-.5925503.091746-.1739598-1.1392698-.6034228.0976825.1739597 1.1333333-.5762416.0863492-.1957047-1.2520635-.6469127.0971429.2989933 1.9315238 3.0714765-.4743809-.3044296-1.926127zm27.991208 2.8327937h-.0163087l5.0828859 2.2612698c.7322617-1.4355555 1.2405503-2.9731111 1.5058389-4.5597778-2.1157852.9627937-4.3152886 1.732381-6.5724161 2.298508zm-23.468255 2.2612698 5.0883221-2.2612698c-2.2620201-.5666667-4.4669597-1.336254-6.5887248-2.298508.2636577 1.5866667.7697718 3.1242223 1.5004027 4.5597778zm31.8014698-2.301746c-.2245168.8656508.3011678 1.7491111 1.1731409 1.972.8719732.2218095 1.7618859-.2995238 1.9858591-1.1651746l-.0108725-.0161905c.0059799-.0205079.0119597-.0420952.017396-.0626032.2054899-.8370476-.3109531-1.6811111-1.1535705-1.8856508-.008698-.0026984-.017396-.0043174-.026094-.0075555-.1364496-.0345397-.2728993-.0512699-.4071745-.0512699-.7262818.0005397-1.3895033.4857143-1.5786845 1.2164445zm1.3704765 1.2493651c-.0418591-.0080953-.0831745-.0188889-.1228591-.032381-.468604-.1608254-.7175839-.6675873-.5555839-1.1327936.1614564-.4646667.6724631-.7113016 1.1405235-.5510159.0413155.0075555.0831745.0188889.1234027.0323809.4680604.1608254.7164966.668127.5550403 1.1327937-.1282953.3686032-.4756712.600127-.8480537.600127-.0967651 0-.1951611-.0156508-.2924698-.0491111zm-39.6791275-.9984127.7556375 2.4771428.6360403-.1942857-.2614832-.9012698 2.3381275-.7069842-.2011409-.6584127-2.3430202.7064445-.293557-.9115238zm6.9366443 2.4550158c2.2049396.8786032 4.4897919 1.5456508 6.8224832 1.9919683l2.9627517-3.7777778c-1.4351678-.1521905-2.8594631-.3864127-4.2674497-.7010476zm17.9069798-1.7588254h-.0434899l2.9681879 3.7777778c2.3582416-.4484762 4.6670134-1.1246984 6.8931544-2.0189524l-5.5455101-2.4604127c-1.4090738.3157143-2.8355436.5499366-4.2723423.7015873zm-10.48651 3.864127c2.0375033.3513334 4.1021879.532127 6.1701342.5396826v-4.1879365c-1.0872483 0-2.1092618-.0599048-3.159-.1511111zm6.7137583-3.6482539v4.1879365c2.0646846-.0080953 4.1250202-.1894286 6.1592618-.5396826l-3.0008054-3.7777777c-1.0655033.069619-2.1195906.1241269-3.1584564.1295238zm-20.0216778 2.3206349.3104094.6152381 1.6901275-.8311111-1.1742282 1.8667619.3696644.7560952 2.7838994-1.3653968-.2886645-.6260318-1.8428859.9120635 1.2612081-2.0340635-.3261745-.6643492zm36.0971879-.3648254c-.3897785.805746-.0472953 1.7728571.7643356 2.1598095.8121745.3869524 1.786349.0474921 2.1761275-.7587936l.0108725-.0167302c.0168523-.032381.0331611-.066381.0478389-.100381.341396-.7884761-.0255503-1.7026984-.8197852-2.041619l-.0032618-.001619c-.2277785-.1084762-.4680604-.1597461-.7045369-.1597461-.6077718 0-1.1910805.338381-1.4715906.9190794zm1.0812685 1.5035555c-.0309866-.0124127-.0608859-.025365-.0902416-.0404761-.4229396-.2196508-.5871141-.7372064-.3664027-1.1576191.0108725-.0248254.0239194-.0491111.0369664-.0728571.2364765-.418254.7697718-.5672064 1.1916242-.3319048v-.0161905c.4501208.2115556.6425637.7453016.4294631 1.1932381-.1538457.3227302-.4778457.5121587-.8154363.5121587-.1293825 0-.2609396-.0275238-.3859731-.0863492zm-10.057047.5504762 2.1418792 2.7097461c1.6602282-1.232635 3.0660403-2.7696508 4.1424161-4.5284762-2.038047.7846984-4.1407852 1.3929206-6.2842953 1.8187301zm-16.9284564 2.7097461 2.1418792-2.7097461c-2.1451409-.4268889-4.2495101-1.0351111-6.2897315-1.8187301 1.0780067 1.7588254 2.4859933 3.2958412 4.1478523 4.5284762zm23.8759732-1.3340953.5436241.3783175.7665101-1.0793651 2.0059732 1.3815873.3914093-.5396825-2.5332885-1.8133334zm-32.3238926.1246667.3859731.5833968 2.5925436-1.7005397-.3854295-.5828571zm8.888255 1.5165079c2.5996107 1.7939048 5.6792416 2.776127 8.8447651 2.8225397v-5.1215873c-2.1880873-.0167301-4.3707383-.2201905-6.5234899-.6098413zm9.3883892-2.2990476v5.1215873c3.1617182-.0491111 6.237-1.031873 8.8338927-2.8225397l-2.3104027-2.903492c-2.1527517.3880317-4.3354027.5904127-6.52349.6044444zm38.2657047 2.5035873c-2.101651-.0005397-3.8064563 1.689746-3.8075436 3.7761587 0 .0437143.0010873.0879683.0016309.1316826-.1049195 2.0448571 1.4792013 3.787492 3.5389933 3.8921905.0886107.0048571.1783087.0059365.2669194.0043174 1.5852081.0690794 3.005698-.9617143 3.419396-2.4825397l-1.1742282-.3777777c-.2669194.9919365-1.1780335 1.6767936-2.2125503 1.6622222-1.3780873.0048571-2.4995839-1.0987937-2.5050201-2.4674286-.0005437-.0771746.0027181-.1543492.0097852-.2309841 0-1.8192699 1.2448993-2.6989524 2.4838188-2.6989524 1.026906-.0593651 1.9461745.6249524 2.1750403 1.6195873l1.2008657-.3999048c-.370208-1.4420317-1.679255-2.4366666-3.159-2.4372063-.0788255 0-.1581946.0032381-.2381074.0086349zm55.3300672.1948254-2.924698 7.4740635h1.347644l.707255-1.8829524h3.191074l.712148 1.8829524h1.391134l-2.935027-7.490254zm.72302 1.3594603 1.147591 3.0605397h-2.295182zm-13.862416-1.3594603v7.4907937h2.69094c2.048919 0 3.680335-1.3324762 3.680335-3.7292064l-.010872-.022127c0-2.4064444-1.614564-3.7394603-3.642282-3.7394603zm1.310678 1.1657143h1.353624c1.293282 0 2.38053.8419048 2.38053 2.595873l-.010872-.022127c0 1.7329207-1.087249 2.5640318-2.381074 2.5856191h-1.342208zm-10.329403-1.1657143-2.941007 7.4907937h1.369933l.706712-1.8834921h3.191074l.712147 1.8834921h1.386242l-2.935571-7.4907937zm.72302 1.3761905 1.147047 3.06h-2.294094zm-9.562349-1.3761905v5.315873l-3.425376-5.315873h-1.630328v7.4907937h1.277516v-5.6936508l3.723282 5.6720635h1.332423v-7.4692064zm-14.096718 0-2.9350267 7.4907937h1.3536237l.701276-1.8834921h3.19053l.713235 1.8834921h1.391134l-2.93557-7.4907937zm.712691 1.3761905 1.146504 3.06h-2.293551zm-63.2669794-.2320635-.0054363.0161905c-.3267181.3810158-.28051.953619.1032886 1.2779682.3837987.3248889.9605839.2784762 1.287302-.1025397.3250873-.3788571.2815974-.9466031-.0967651-1.2731111-.1739597-.149492-.3886912-.2234285-.6023355-.2234285-.2533289 0-.5044832.1030793-.6860537.3049206zm25.6318792.4101587h-.0114161c-.3979329.3113968-.4675168.8845397-.1538457 1.2806667.3136712.3955873.891.4646667 1.2900202.1532698.3990201-.3113968.4680604-.8850793.1549329-1.2806666-.0010873-.0005397-.0016309-.0016191-.0021745-.0021588-.1810269-.2239682-.4474027-.3410793-.7164967-.3410793-.1962483 0-.3941275.0620635-.5610201.1899682zm-21.6797316 2.2407619c-.0097852.0194286-.0184832.0383175-.0271812.0582857-.3930402.7614921-.0891543 1.6946032.6773557 2.0847937.0293557.0151111.0587114.0286032.0891544.0415555.6061409.3302858 1.363953.1829524 1.7988523-.3513333l-.5158993-.4473968c-.2457181.2811746-.6545235.3551111-.9839597.1780952-.4425101-.1942857-.6420202-.7069841-.4468591-1.145746.008698-.0194286.0184832-.0388571.0282685-.057746.175047-.4538731.6876845-.6805397 1.1443288-.5067619.0212014.0080952.0418591.0167301.0625168.0264444.3490067.1311429.5485168.4965079.4675168.8580952l.6795302.0917461c.1353624-.6573334-.2283222-1.314127-.8589262-1.5542857-.2228859-.1079365-.4588188-.1586667-.6914899-.1586667-.5860269 0-1.1492215.3248889-1.4232081.8829206zm16.24349-.136.0706711 3.2866667.674094-.2644445v-.6638095l1.0872483-.4473968.4403356.5013651.7012751-.2806349-2.228859-2.4285715zm.6469127.5612699.7447651.8532381-.6958389.2746984zm-14.400604 2.4339682.7012752.1996826.3859731-.5396826 1.125302.3292064.0380537.6638095.7235638.2050794-.256047-3.2812699-.7338926-.2153333zm1.4618054-.8796825.6637651-.9174603.0489261 1.1279365zm9.8510134-1.4037143-1.0872483.2428571.6795302 3.0119683 1.0872483-.2433968c.0652349-.0091746.1299262-.0226667.1935302-.0410159.775208-.2234286 1.2220671-1.0280952.9970067-1.7993016h.0108725c-.0108725-.0733968-.0282685-.1451746-.0500134-.215873-.1951611-.622254-.7730336-1.0210794-1.3960269-1.0210794-.1440604 0-.2902953.0215873-.4348993.0658413zm-.2718121.7291111.3914094-.0863492c.0500134-.0156508.1022013-.0259048.1543893-.0313016.4446845-.0453333.843161.2746984.8893691.7166984h.0271812c.0168523.0518096.0293557.1052381.0358792.1592064.0521879.4446984-.2680067.8467619-.7154094.8980317l-.3914094.0863492zm-7.3661074 2.5305714.6789866.0706984.2234295-2.0130158 1.0491947 2.1587301.7279127.0809524.3484631-3.0707936-.6855101-.0701588-.216906 1.856508-.9567785-1.9914286-.831745-.0863492zm4.3707383-2.822-.9785235 3.1468889.7284564-.0437143.1848322-.6368254 1.1959731-.0755555.260396.6098413.750745-.0431746-1.3427517-3.0060318zm.4348993.7393651.4403356 1.0415873-.7556376.0377778z" fill="url(#a)"/></g></svg>